<svg xmlns="http://www.w3.org/2000/svg" viewBox="0 0 360 360" fill="#fff">
    <path d="M345 124.552h-50V77.834L211.977 0H15v360h280v-52.721h50V124.552zm-30 152.727H105V154.552h210v122.727z"/>
    <path d="M139.928 221.713h15.792c3.069 0 5.89-.626 8.46-1.88 2.569-1.253 4.762-2.914 6.58-4.982 1.816-2.068 3.227-4.433 4.23-7.097a23.197 23.197 0 0 0 1.504-8.225c0-2.693-.533-5.372-1.599-8.037a23.979 23.979 0 0 0-4.418-7.144c-1.88-2.099-4.121-3.791-6.721-5.076-2.602-1.284-5.438-1.927-8.507-1.927h-28.294v66.74h12.972v-22.372zm0-32.994h14.476c1.129 0 2.24.235 3.338.705a7.852 7.852 0 0 1 2.866 2.115c.814.94 1.472 2.084 1.975 3.431.501 1.349.752 2.867.752 4.559 0 3.322-.799 5.955-2.398 7.896-1.598 1.943-3.588 2.914-5.969 2.914h-15.04v-21.62zM223.352 241.688c4.042-1.598 7.504-3.854 10.387-6.768 2.882-2.914 5.091-6.423 6.627-10.528 1.535-4.104 2.303-8.695 2.303-13.771 0-4.574-.691-8.883-2.067-12.925-1.38-4.042-3.447-7.567-6.204-10.575-2.759-3.008-6.189-5.389-10.293-7.144-4.105-1.754-8.883-2.632-14.335-2.632h-24.252v66.74h24.252c5.011 0 9.54-.799 13.582-2.397zm-24.864-52.969h11.28c3.133 0 5.937.533 8.413 1.598 2.475 1.066 4.559 2.57 6.251 4.512 1.691 1.943 2.976 4.262 3.854 6.956.877 2.695 1.316 5.64 1.316 8.836 0 3.134-.439 6.048-1.316 8.742-.878 2.695-2.147 5.029-3.807 7.003-1.661 1.974-3.729 3.525-6.204 4.653-2.477 1.128-5.311 1.692-8.507 1.692h-11.28v-43.992zM265.791 216.449h26.508v-10.528h-26.508v-17.202h31.866v-11.374h-44.838v66.74h12.972z"/>
</svg>
